# Blender v2.75 (sub 0) OBJ File: ''
# www.blender.org
mtllib card_swipe.mtl
o card_swipe
v 0.250000 -0.500000 -0.250000
v 0.250000 -0.300000 -0.250000
v 0.250000 -0.300000 0.250000
v 0.250000 -0.500000 0.250000
v -0.250000 -0.300000 0.250000
v -0.250000 -0.500000 0.250000
v -0.250000 -0.300000 -0.250000
v -0.250000 -0.500000 -0.250000
v -0.350000 -0.500000 0.200000
v -0.350000 -0.400000 0.200000
v -0.350000 -0.400000 -0.200000
v -0.350000 -0.500000 -0.200000
v -0.250000 -0.400000 0.200000
v -0.250000 -0.400000 -0.200000
v -0.250000 -0.500000 0.200000
v -0.250000 -0.500000 -0.200000
vt 0.015625 0.718750
vt 0.015625 0.531250
vt 0.500000 0.531250
vt 0.500000 0.718750
vt 0.515625 0.500000
vt 0.015625 0.500000
vt 0.015625 0.015625
vt 0.515625 0.015625
vt 0.531250 0.125000
vt 0.625000 0.125000
vt 0.625000 0.515625
vt 0.531250 0.515625
vt 0.734375 0.125000
vt 0.734375 0.515625
vt 0.734375 0.015625
vt 0.625000 0.015625
vt 0.734375 0.625000
vt 0.625000 0.625000
vn 1.000000 0.000000 0.000000
vn -0.000000 0.000000 1.000000
vn -1.000000 -0.000000 -0.000000
vn 0.000000 -0.000000 -1.000000
vn 0.000000 1.000000 -0.000000
usemtl None
s 1
f 1/1/1 2/2/1 3/3/1 4/4/1
f 4/1/2 3/2/2 5/3/2 6/4/2
f 6/1/3 5/2/3 7/3/3 8/4/3
f 8/1/4 7/2/4 2/3/4 1/4/4
f 5/5/5 3/6/5 2/7/5 7/8/5
f 9/9/3 10/10/3 11/11/3 12/12/3
f 13/13/5 14/14/5 11/11/5 10/10/5
f 15/15/2 13/13/2 10/10/2 9/16/2
f 14/14/4 16/17/4 12/18/4 11/11/4
